<svg width="43" height="43" viewBox="0 0 43 43" fill="none" xmlns="http://www.w3.org/2000/svg"> <path d="M39.1111 21.3334V11.5557C39.1111 7.13738 35.5294 3.55566 31.1111 3.55566H11.5556C7.13728 3.55566 3.55556 7.13739 3.55556 11.5557V31.1112C3.55556 35.5295 7.13728 39.1112 11.5556 39.1112H16" stroke="white" stroke-width="1.33333" stroke-linecap="round"></path> <path d="M21.3333 12.4443V21.3332L16 23.111" stroke="white" stroke-width="1.33333" stroke-linecap="round" stroke-linejoin="round"></path> <path d="M21.3333 32.8888V31.9999C21.3333 30.0362 22.9252 28.4443 24.8889 28.4443C26.8526 28.4443 28.4444 30.0362 28.4444 31.9999C28.4444 33.119 27.9175 34.1729 27.0222 34.8443L21.3333 39.111H28.4444" stroke="white" stroke-width="1.33333" stroke-linecap="round" stroke-linejoin="round"></path> <path d="M32 28.4443V29.7777C32 31.9868 33.7909 33.7777 36 33.7777H39.1111M39.1111 33.7777V28.4443M39.1111 33.7777V39.111" stroke="white" stroke-width="1.33333" stroke-linecap="round" stroke-linejoin="round"></path> <path d="M39.1111 21.3329L35.5556 17.7773" stroke="white" stroke-width="1.33333" stroke-linecap="round" stroke-linejoin="round"></path> </svg>