<svg width="43" height="43" viewBox="0 0 43 43" fill="none" xmlns="http://www.w3.org/2000/svg"> <path d="M7.11111 21.333V35.1108C7.11111 37.3199 8.90197 39.1108 11.1111 39.1108H31.5556C33.7647 39.1108 35.5556 37.3199 35.5556 35.1108V21.333" stroke="white" stroke-width="1.33333"></path> <path d="M21.3333 14.2227H34.8889C35.3086 14.2227 35.7038 14.4202 35.9556 14.756L39.2889 19.2004C39.9481 20.0794 39.321 21.3338 38.2222 21.3338H27.3333C26.9137 21.3338 26.5185 21.1362 26.2667 20.8004L21.3333 14.2227Z" stroke="white" stroke-width="1.33333"></path> <path d="M21.3333 14.2227H7.77778C7.3581 14.2227 6.96292 14.4202 6.71111 14.756L3.37778 19.2004C2.71854 20.0794 3.34572 21.3338 4.44445 21.3338H15.3333C15.753 21.3338 16.1482 21.1362 16.4 20.8004L21.3333 14.2227Z" stroke="white" stroke-width="1.33333"></path> <path d="M17.0415 7.11089L14.2222 3.55534L25.7779 3.55534C27.2507 3.55534 28.4446 4.74924 28.4446 6.222C28.4446 7.69476 27.2507 8.88867 25.7779 8.88867L23.1112 8.88867" stroke="white" stroke-width="1.33333" stroke-linecap="round" stroke-linejoin="round"></path> </svg>