<svg width="43" height="43" viewBox="0 0 43 43" fill="none" xmlns="http://www.w3.org/2000/svg"> <path d="M7.11111 17.7773V29.5274C7.11111 31.0425 7.96712 32.4276 9.32225 33.1051L19.5445 38.2163C20.6706 38.7793 21.9961 38.7793 23.1222 38.2163L33.3444 33.1051C34.6995 32.4276 35.5556 31.0425 35.5556 29.5274V17.7773" stroke="white" stroke-width="1.33333"></path> <path d="M35.5556 10.6668L23.1222 4.45009C21.9961 3.88704 20.6706 3.88704 19.5445 4.45009L7.11111 10.6668L21.3333 17.7779L35.5556 10.6668Z" stroke="white" stroke-width="1.33333" stroke-linecap="round" stroke-linejoin="round"></path> <path d="M35.5556 10.667L21.3333 17.7781L24.8889 23.1114L39.1111 16.0003L35.5556 10.667Z" stroke="white" stroke-width="1.33333" stroke-linecap="round" stroke-linejoin="round"></path> <path d="M7.11111 10.667L21.3333 17.7781L17.7778 23.1114L3.55556 16.0003L7.11111 10.667Z" stroke="white" stroke-width="1.33333" stroke-linecap="round" stroke-linejoin="round"></path> </svg>